<svg id="Switch_Light" data-name="Switch Light" xmlns="http://www.w3.org/2000/svg" xmlns:xlink="http://www.w3.org/1999/xlink" width="51" height="31" viewBox="0 0 51 31">
  <defs>
    <clipPath id="clip-path">
      <path id="Race_Track" data-name="Race Track" d="M15.857.092C17.6-.008,19.335,0,21.075,0h8.817c1.774,0,3.512-.008,5.251.092A21.645,21.645,0,0,1,39.8.8a15.242,15.242,0,0,1,0,29.394,21.707,21.707,0,0,1-4.654.711c-1.739.1-3.477.091-5.217.091H21.107c-1.772,0-3.51.008-5.25-.092A21.708,21.708,0,0,1,11.2,30.2,15.242,15.242,0,0,1,11.2.8,21.645,21.645,0,0,1,15.857.092Z" fill="#34c759"/>
    </clipPath>
    <clipPath id="clip-path-2">
      <path id="Mask" d="M15.857.092C17.6-.008,19.335,0,21.075,0h8.817c1.774,0,3.512-.008,5.251.092A21.645,21.645,0,0,1,39.8.8a15.242,15.242,0,0,1,0,29.394,21.707,21.707,0,0,1-4.654.711c-1.739.1-3.477.091-5.217.091H21.107c-1.772,0-3.51.008-5.25-.092A21.708,21.708,0,0,1,11.2,30.2,15.242,15.242,0,0,1,11.2.8,21.645,21.645,0,0,1,15.857.092Z" fill="none"/>
    </clipPath>
    <filter id="knob" x="20" y="1.5" width="31" height="32.5" filterUnits="userSpaceOnUse">
      <feOffset dy="3" input="SourceAlpha"/>
      <feGaussianBlur stdDeviation="0.5" result="blur"/>
      <feFlood flood-opacity="0.059"/>
      <feComposite operator="in" in2="blur"/>
      <feComposite in="SourceGraphic"/>
    </filter>
  </defs>
  <g id="Switch_-_On" data-name="Switch - On">
    <g id="Accent_Color" data-name="Accent Color">
      <path id="Race_Track-2" data-name="Race Track" d="M15.857.092C17.6-.008,19.335,0,21.075,0h8.817c1.774,0,3.512-.008,5.251.092A21.645,21.645,0,0,1,39.8.8a15.242,15.242,0,0,1,0,29.394,21.707,21.707,0,0,1-4.654.711c-1.739.1-3.477.091-5.217.091H21.107c-1.772,0-3.51.008-5.25-.092A21.708,21.708,0,0,1,11.2,30.2,15.242,15.242,0,0,1,11.2.8,21.645,21.645,0,0,1,15.857.092Z" fill="#34c759"/>
    </g>
    <g id="Group_2" data-name="Group 2">
      <path id="Mask-2" data-name="Mask" d="M15.857.092C17.6-.008,19.335,0,21.075,0h8.817c1.774,0,3.512-.008,5.251.092A21.645,21.645,0,0,1,39.8.8a15.242,15.242,0,0,1,0,29.394,21.707,21.707,0,0,1-4.654.711c-1.739.1-3.477.091-5.217.091H21.107c-1.772,0-3.51.008-5.25-.092A21.708,21.708,0,0,1,11.2,30.2,15.242,15.242,0,0,1,11.2.8,21.645,21.645,0,0,1,15.857.092Z" fill="none"/>
      <g id="Mask_Group_2" data-name="Mask Group 2" clip-path="url(#clip-path-2)">
        <g id="Knob-2" data-name="Knob" transform="translate(20)">
          <g transform="matrix(1, 0, 0, 1, -20, 0)" filter="url(#knob)">
            <g id="knob-3" data-name="knob" transform="translate(22 2)" fill="#fff" stroke="rgba(0,0,0,0.04)" stroke-miterlimit="10" stroke-width="0.5">
              <circle cx="13.5" cy="13.5" r="13.5" stroke="none"/>
              <circle cx="13.5" cy="13.5" r="13.75" fill="none"/>
            </g>
          </g>
        </g>
      </g>
    </g>
  </g>
</svg>
