<svg xmlns="http://www.w3.org/2000/svg" width="26.312" height="18.268" viewBox="0 0 26.312 18.268">
  <g id="Group_1078" data-name="Group 1078" transform="translate(-36.515 -324.814)">
    <path id="Path_1277" data-name="Path 1277" d="M10.766,45.629a9.532,9.532,0,0,1-4-.843l-.386-.211v-.456c-.211-11.481-.14-11.551.176-11.832l.246-.246.351.035a53.013,53.013,0,0,0,14.781-.7c3.687-.843,5.863-.14,6.811.351a1.4,1.4,0,0,1,.772,1.264V43.1a1.2,1.2,0,0,1-1.3,1.194,42.858,42.858,0,0,0-15.027,1.053A12.531,12.531,0,0,1,10.766,45.629ZM7.852,43.592a8.885,8.885,0,0,0,4.951.281A43.052,43.052,0,0,1,27.97,42.785V33.024c-.667-.316-2.493-.913-5.758-.176a53.528,53.528,0,0,1-14.465.808C7.747,35.447,7.817,40.222,7.852,43.592Z" transform="translate(30.258 297.453)" fill="#3b77d8"/>
    <path id="Path_1278" data-name="Path 1278" d="M39.4,33.917a.779.779,0,0,1-.772-.772V23.068a.237.237,0,0,0-.14-.211,16.2,16.2,0,0,0-7.9-.351c-.211.035-.421.105-.667.14a30.437,30.437,0,0,1-11.27.7.733.733,0,0,1-.667-.843.751.751,0,0,1,.843-.667A28.367,28.367,0,0,0,29.6,21.172a5.7,5.7,0,0,1,.667-.14,18.3,18.3,0,0,1,8.672.386,1.7,1.7,0,0,1,1.229,1.65V33.145A.779.779,0,0,1,39.4,33.917Z" transform="translate(22.656 304.144)" fill="#3b77d8"/>
    <path id="Path_1279" data-name="Path 1279" d="M49.717,48.954h-.14A2.188,2.188,0,0,1,47.4,46.777h0A2.188,2.188,0,0,1,49.577,44.6h.14a2.188,2.188,0,0,1,2.177,2.177h0A2.188,2.188,0,0,1,49.717,48.954Z" transform="translate(3.561 288.615)" fill="#3b77d8"/>
    <path id="Path_1280" data-name="Path 1280" d="M18.839,57.181a5.147,5.147,0,0,1-2.107-.351.756.756,0,1,1,.562-1.4,6.465,6.465,0,0,0,3.967-.176c1.088-.351,2.071-.6,2.879-.772a.751.751,0,1,1,.281,1.475,18.8,18.8,0,0,0-2.7.737A9.676,9.676,0,0,1,18.839,57.181Z" transform="translate(23.765 282.214)" fill="#3b77d8"/>
  </g>
</svg>
